<?xml version="1.0" standalone="no"?>
<svg viewBox="0 0 200 200" xmlns="http://www.w3.org/2000/svg">
  <path fill="#08BDBA" d="M13.6,-23.1C18.4,-20.9,23.5,-18.7,29.3,-14.9C35.1,-11,41.6,-5.5,51.2,5.5C60.7,16.5,73.2,33,72.2,45.1C71.2,57.3,56.6,65,42.3,63.6C28,62.2,14,51.7,0.3,51.3C-13.5,50.8,-26.9,60.4,-35.8,58.7C-44.7,56.9,-49,43.8,-49,32.2C-49,20.5,-44.7,10.3,-41.3,1.9C-38,-6.4,-35.7,-12.8,-31.7,-17.6C-27.7,-22.3,-22.1,-25.4,-16.5,-27.2C-11,-29,-5.5,-29.5,-0.5,-28.6C4.4,-27.7,8.9,-25.4,13.6,-23.1Z" transform="translate(100 100)" />
</svg>
